<svg xmlns="http://www.w3.org/2000/svg" width="29" height="40" viewBox="0 0 29 40">
    <path fill="#000" fill-rule="nonzero" d="M14.5 0C10.712 0 7.08 1.523 4.403 4.23A14.53 14.53 0 0 0 .22 14.445C.22 26.666 14.5 40 14.5 40s14.28-13.334 14.28-25.556c0-3.831-1.505-7.505-4.182-10.213A14.2 14.2 0 0 0 14.5 0zm0 21a6.446 6.446 0 0 1-4.583-1.92 6.596 6.596 0 0 1-1.898-4.636c0-1.738.683-3.406 1.898-4.635a6.446 6.446 0 0 1 4.583-1.92c1.718 0 3.368.69 4.583 1.92a6.609 6.609 0 0 1-.002 9.27A6.458 6.458 0 0 1 14.5 21z"/>
</svg>
