<svg xmlns="http://www.w3.org/2000/svg" width="46" height="50" viewBox="0 0 46 50">
    <path fill="#FFF" fill-rule="nonzero" d="M45.505 16.717c.003-.782-.086-1.55-.332-2.293-.718-2.166-1.923-3.96-3.942-5.127-4.693-2.711-9.388-5.413-14.07-8.14A8.381 8.381 0 0 0 23.074.005c-1.605-.04-3.132.248-4.545 1.068-4.726 2.742-9.48 5.438-14.184 8.215C1.539 10.946.063 13.493.03 16.747-.028 22.19.017 27.634.012 33.075c0 .837.102 1.659.38 2.448.741 2.102 1.936 3.847 3.915 4.989 4.657 2.681 9.314 5.362 13.953 8.071 1.22.713 2.503 1.132 3.903 1.208 1.713.094 3.339-.183 4.845-1.06 4.695-2.725 9.39-5.446 14.098-8.143 1.314-.753 2.329-1.778 3.1-3.061.743-1.236 1.268-2.56 1.28-4.018.024-2.866.008-5.735.008-8.601h.008c0-2.73-.005-5.459.003-8.19v-.001zm-13.271 21.23a.977.977 0 0 1-1.355-.249l-5.403-7.858a8.822 8.822 0 0 1-3.774.855 8.777 8.777 0 0 1-7.566-4.256 8.8 8.8 0 0 1-1.038-6.694 8.8 8.8 0 0 1 4-5.467 8.837 8.837 0 0 1 4.586-1.286 8.797 8.797 0 0 1 7.574 4.257 8.792 8.792 0 0 1 1.035 6.694 8.766 8.766 0 0 1-3.158 4.875l5.347 7.777a.97.97 0 0 1-.248 1.352zM27.597 18.26a6.866 6.866 0 0 0-5.91-3.32 6.894 6.894 0 0 0-3.577 1.004 6.846 6.846 0 0 0-3.117 4.261 6.864 6.864 0 0 0 .806 5.22 6.848 6.848 0 0 0 5.903 3.32 6.882 6.882 0 0 0 3.579-1.006 6.85 6.85 0 0 0 3.12-4.261 6.847 6.847 0 0 0-.804-5.218z"/>
</svg>
