<svg xmlns="http://www.w3.org/2000/svg" width="20" height="16" viewBox="0 0 20 16">
    <path fill="#666" fill-rule="nonzero" d="M0 8c0 .238.092.465.256.633a.864.864 0 0 0 .619.262h16.182l-5.47 5.577a.91.91 0 0 0 0 1.266.86.86 0 0 0 1.236 0l6.942-7.102a.87.87 0 0 0 .148-.206l.045-.09.025-.088V8.25a.552.552 0 0 0 0-.075.926.926 0 0 0 0-.35.552.552 0 0 0 0-.075l-.025-.09-.045-.088V7.57a.87.87 0 0 0-.149-.206L12.825.262a.86.86 0 0 0-1.238 0 .91.91 0 0 0 0 1.266l5.449 5.577H.875C.39 7.105 0 7.505 0 8z"/>
</svg>
